<?xml version="1.0" standalone="yes"?>
<svg xmlns="http://www.w3.org/2000/svg" width="75" height="75">
<path style="fill:#fbfbfb; stroke:none;" d="M0 0L0 183C10.6709 176.275 14.8392 174 28 174C24.3575 158.065 28.4373 146.4 32 131C20.3515 135.778 2.60497 131.844 9.48302 115C12.6634 107.211 19.8278 103.414 27 100C24.4528 96.259 20.7681 92.7156 20.2539 88C18.8335 74.976 33.2675 63.5374 45 63C45.0721 36.8622 62.4717 28.6356 85 38C76.8689 19.9972 89.8452 3.87106 109 1L76 0L0 0z"/>
<path style="fill:#a7a59c; stroke:none;" d="M109 0L109 1L112 1L109 0z"/>
<path style="fill:#7e9f07; stroke:none;" d="M86 39C74.19 32.133 56.0266 29.1371 48.5579 44C45.4157 50.2529 46 57.2279 46 64C27.6628 64.0121 10.2668 85.8303 28 100C20.2608 102.635 12.6367 106.921 9.56327 115C3.22383 131.665 20.9783 137.553 33 130L29 141C32.0926 141 34.9575 152.89 37.3333 156C45.6958 166.947 62.1791 169.543 73 161L73 160C68.7362 155.246 67.057 151.369 67 145C76.3743 155.281 80.5614 161.866 96 159C91.6208 162.338 88.3709 162.952 83 162C83.4321 180.379 107.729 179.814 117 168C100.693 160.963 94.8846 146.369 89 131L86 132L93 125C91.4576 134.279 104.983 136.812 112 138.332C131.979 142.659 157.282 141.747 174 129L174 128L172 124L179 132L176 131L169 154C176.629 156.439 184.421 158.647 192 155L189 144C193.643 147.708 201.809 148.035 205.397 151.603C211.072 157.246 208.804 165.489 220 165.867C233.229 166.313 259.697 146.405 235 142C241.926 132.852 250.597 114.976 236 108L236 107C263.852 106.769 265.184 66.553 243 55.4568C237.225 52.5684 230.818 54.4608 225 56C227.288 34.9724 199.229 24.017 190 45L189 45C181.281 30.1212 170.102 30.7663 158 39C157.997 11.3893 132.45 -5.20331 106 1.51466C87.8943 6.11325 75.8892 22.03 86 39z"/>
<path style="fill:#a7a59c; stroke:none;" d="M120 0L120 1L123 1L120 0z"/>
<path style="fill:#fbfbfb; stroke:none;" d="M123 0L123 1C144.704 1.94629 158 18.3159 158 39C173.182 29.009 176.907 33.9962 190 44C202.123 24.9267 225.024 34.6941 226 56C258.779 43.3767 273.016 106.698 237 107L237 108C249.074 117.347 242.763 130.636 236 141C254.422 143.381 262.721 160.656 246 173L246 174L261 181L262 181L262 0L123 0z"/>
<path style="fill:#a7a59c; stroke:none;" d="M105 1L106 2L105 1M127.667 1.33333L128.333 1.66667L127.667 1.33333M102 2L103 3L102 2M131.667 2.33333L132.333 2.66667L131.667 2.33333M100 3L101 4L100 3M135 3L136 4L135 3M98 4L99 5L98 4M137 4L138 5L137 4M96 5L97 6L96 5M139 5L140 6L139 5M94 6L95 7L94 6M141 6L142 7L141 6M93 7L94 8L93 7M143 7L144 8L143 7M144 8L145 9L144 8M90 9L91 10L90 9M89 10L90 11L89 10M147 10L148 11L147 10M88 11L89 12L88 11M148 11L149 12L148 11M87 12L88 13L87 12M149 12L150 13L149 12M86 13L87 14L86 13M150 13L151 14L150 13M84 16L85 17L84 16M152 16L153 17L152 16M83 17L84 18L83 17M153 17L154 18L153 17M82 19L83 20L82 19M154 19L155 20L154 19M155 21L156 22L155 21M81.3333 22.6667L81.6667 23.3333L81.3333 22.6667M156.333 23.6667L156.667 24.3333L156.333 23.6667M157.333 27.6667L157.667 28.3333L157.333 27.6667M81 30L82 31L81 30M168 32L169 33L168 32M175 32L176 33L175 32M203 32L203 33L207 33L203 32M61.6667 33.3333L62.3333 33.6667L61.6667 33.3333M72.6667 33.3333L73.3333 33.6667L72.6667 33.3333M82 33L83 34L82 33M165 33L166 34L165 33M199 33L200 34L199 33M210 33L211 34L210 33M58.6667 34.3333L59.3333 34.6667L58.6667 34.3333M76.6667 34.3333L77.3333 34.6667L76.6667 34.3333M179 34L180 35L179 34M197 34L198 35L197 34M212 34L213 35L212 34M56 35L57 36L56 35M79 35L80 36L79 35M162 35L163 36L162 35M196 35L197 36L196 35M214 35L215 36L214 35M81 36L82 37L81 36M84 36L85 37L84 36M161 36L162 37L161 36M182 36L183 37L182 36M195 36L196 37L195 36M216 36L217 37L216 36M53 37L54 38L53 37M83 37L84 38L83 37M85.3333 37.6667L85.6667 38.3333L85.3333 37.6667M160 37L161 38L160 37M183 37L184 38L183 37M194 37L195 38L194 37M217 37L218 38L217 37M52 38L53 39L52 38M159 38L160 39L159 38M184 38L185 39L184 38M193 38L194 39L193 38M218 38L219 39L218 38M51 39L52 40L51 39M185 39L186 40L185 39M192 39L193 40L192 39M219 39L220 40L219 39M50 40L51 41L50 40M220 40L221 41L220 40M191 41L192 42L191 41M221 41L222 42L221 41M48 43L49 44L48 43M188 43L189 44L188 43M190 43L191 44L190 43M222 43L223 44L222 43M189 44L190 45L189 44M223 45L224 46L223 45M47 46L48 47L47 46M224 47L225 48L224 47M46 49L47 50L46 49M225 50L225 53L226 53L225 50M232 53L232 54L239 54L232 53M45 54L45 63L39 63L39 64L46 64L45 54M225.333 54.6667L225.667 55.3333L225.333 54.6667M229 54L230 55L229 54M241 54L242 55L241 54M227 55L228 56L227 55M243 55L244 56L243 55M246 57L247 58L246 57M247 58L248 59L247 58M248 59L249 60L248 59M249 60L250 61L249 60M250 61L251 62L250 61M36 64L37 65L36 64M252 64L253 65L252 64M34 65L35 66L34 65M32 66L33 67L32 66M253 66L254 67L253 66M31 67L32 68L31 67M93 67L93 68L96 68L93 67z"/>
<path style="fill:#fbfbfb; stroke:none;" d="M101 116L101 115C97.7505 114.044 94.7698 112.746 92.1852 110.471C68.3301 89.4697 119.72 69.7105 117.772 100C117.522 103.893 115.627 107.535 114 111C136.389 94.8859 117.572 61.1158 92 68.4506C63.5815 76.6018 73.7799 115.925 101 116z"/>
<path style="fill:#a7a59c; stroke:none;" d="M97.6667 67.3333L98.3333 67.6667L97.6667 67.3333M101 67L102 68L101 67M103.667 67.3333L104.333 67.6667L103.667 67.3333M154.667 67.3333L155.333 67.6667L154.667 67.3333z"/>
<path style="fill:#fbfbfb; stroke:none;" d="M156 67.4653C123.964 73.089 131.712 121.068 164 115.674C194.812 110.527 186.534 62.1054 156 67.4653z"/>
<path style="fill:#a7a59c; stroke:none;" d="M163 67L163 68L166 68L163 67M90.6667 68.3333L91.3333 68.6667L90.6667 68.3333M107.667 68.3333L108.333 68.6667L107.667 68.3333M151 68L152 69L151 68M167 68L168 69L167 68M254 68L255 69L254 68M88 69L89 70L88 69M110 69L111 70L110 69M148 69L149 70L148 69M170 69L171 70L170 69M27 70L28 71L27 70M86 70L87 71L86 70M112 70L113 71L112 70M172 70L173 71L172 70M255 70L256 71L255 70M113 71L114 72L113 71M145 71L146 72L145 71M173 71L174 72L173 71M83 72L84 73L83 72M143 72L144 73L143 72M82 73L83 74L82 73M116 73L117 74L116 73M142 73L143 74L142 73M176 73L177 74L176 73M256 73L257 74L256 73M24 74L25 75L24 74M81 74L82 75L81 74M117 74L118 75L117 74M141 74L142 75L141 74M177 74L178 75L177 74M80 75L81 76L80 75M140 75L141 76L140 75M178 75L179 76L178 75M79 76L80 77L79 76M257.333 76.6667L257.667 77.3333L257.333 76.6667M22 77L23 78L22 77M78 78L79 79L78 78M120 78L121 79L120 78M138 78L139 79L138 78M180 78L181 79L180 78M21 80L22 81L21 80M121 80L122 81L121 80M181 80L182 81L181 80M76.3333 81.6667L76.6667 82.3333L76.3333 81.6667M122 82L123 83L122 82M136 82L137 83L136 82M182 82L183 83L182 82M20 83L20 86L21 86L20 83M99 83L99 84L105 84L99 83M154.667 83.3333L155.333 83.6667L154.667 83.3333z"/>
<path style="fill:#3a4504; stroke:none;" d="M156 83.5077C136.139 86.4551 141.224 117.233 161 113.656C179.718 110.27 174.758 80.724 156 83.5077z"/>
<path style="fill:#7e9f07; stroke:none;" d="M160 83L161 84L160 83z"/>
<path style="fill:#a7a59c; stroke:none;" d="M161.667 83.3333L162.333 83.6667L161.667 83.3333M75.3333 84.6667L75.6667 85.3333L75.3333 84.6667M96 84L97 85L96 84z"/>
<path style="fill:#3a4504; stroke:none;" d="M97 84.6528C78.363 90.5046 88.3485 119.198 107 113.347C125.62 107.507 115.701 78.7807 97 84.6528z"/>
<path style="fill:#a7a59c; stroke:none;" d="M107 84L108 85L107 84M123.333 84.6667L123.667 85.3333L123.333 84.6667M135.333 84.6667L135.667 85.3333L135.333 84.6667M151 84L152 85L151 84M164 84L165 85L164 84M183 84L183 87L184 87L183 84M258 84L258 87L259 87L258 84M94 85L95 86L94 85M109 85L110 86L109 85M149 85L150 86L149 85M166 85L167 86L166 85M92 86L93 87L92 86M111 86L112 87L111 86M148 86L149 87L148 86M167 86L168 87L167 86M91 87L92 88L91 87M112 87L113 88L112 87M147 87L148 88L147 87M90 88L91 89L90 88M113 88L114 89L113 88M124 88L124 96L125 96L124 88M146 88L147 89L146 88z"/>
<path style="fill:#7e9f07; stroke:none;" d="M169 88L170 89L169 88z"/>
<path style="fill:#a7a59c; stroke:none;" d="M184 88L185 89L184 88M20.3333 89.6667L20.6667 90.3333L20.3333 89.6667M74 89L74 95L75 95L74 89M89 89L90 90L89 89M114 89L115 90L114 89M145 89L146 90L145 89M170 89L171 90L170 89M171 90L172 91L171 90M184 90L184 94L185 94L184 90M88 91L89 92L88 91M115 91L116 92L115 91M144 91L145 92L144 91M172 92L173 93L172 92M257.333 92.6667L257.667 93.3333L257.333 92.6667M87 93L88 94L87 93M116 93L117 94L116 93M143 93L144 94L143 93z"/>
<path style="fill:#7e9f07; stroke:none;" d="M172 93L173 94L172 93z"/>
<path style="fill:#a7a59c; stroke:none;" d="M22 94L23 95L22 94M117 95L117 103L118 103L117 95M173 95L173 104L174 104L173 95M86 96L86 102L87 102L86 96M142 96L142 101L143 101L142 96M256 96L257 97L256 96M123 97L123 100L124 100L123 97M183 97L183 100L184 100L183 97M75.3333 98.6667L75.6667 99.3333L75.3333 98.6667M135.333 98.6667L135.667 99.3333L135.333 98.6667M255 98L256 99L255 98M27 99L28 100L27 99M26 100L27 101L26 100M182.333 100.667L182.667 101.333L182.333 100.667M23 101L24 102L23 101M76 101L77 102L76 101M122 101L123 102L122 101M136 101L137 102L136 101M21 102L22 103L21 102M19 103L20 104L19 103M77 103L78 104L77 103M121 103L122 104L121 103M137 103L138 104L137 103M143.333 103.667L143.667 104.333L143.333 103.667M181 103L182 104L181 103M87 104L88 105L87 104M116.333 104.667L116.667 105.333L116.333 104.667M120 104L119 107L120 104M172.333 104.667L172.667 105.333L172.333 104.667M249 104L250 105L249 104M16 105L17 106L16 105M78 105L79 106L78 105M138 105L139 106L138 105M180 105L181 106L180 105M247 105L248 106L247 105M15 106L16 107L15 106M79 106L80 107L79 106M88 106L89 107L88 106M115 106C110.471 112.278 105.498 113.978 98 114L98 115L101 115L101 116L94 116L94 117C99.4739 117 106.548 118.038 110 113L115 112L115 106M139 106L140 107L139 106M144 106L145 107L144 106M171.333 106.667L171.667 107.333L171.333 106.667M179.333 106.667L179.667 107.333L179.333 106.667M243.667 106.333L244.333 106.667L243.667 106.333M14 107L15 108L14 107M118 107L119 108L118 107M145 107L146 108L145 107M236 107L237 108L236 107M13 108L14 109L13 108M80 108L81 109L80 108M117 108L118 109L117 108M170 108L171 109L170 108M177.667 108.333L178.333 108.667L177.667 108.333M238 108L239 109L238 108M12 109L13 110L12 109M81 109L82 110L81 109M90 109L91 110L90 109M116 109L117 110L116 109M169 109L170 110L169 109M176 109L177 110L176 109M239 109L240 110L239 109M11 110L12 111L11 110M82 110L83 111L82 110M91 110L92 111L91 110M115 110L116 111L115 110z"/>
<path style="fill:#7e9f07; stroke:none;" d="M148 110L149 111L148 110z"/>
<path style="fill:#a7a59c; stroke:none;" d="M168 110L169 111L168 110M175 110L176 111L175 110M240 110L241 111L240 110M84 111L85 112L84 111M149 111L150 112L149 111z"/>
<path style="fill:#7e9f07; stroke:none;" d="M166 111L167 112L166 111z"/>
<path style="fill:#a7a59c; stroke:none;" d="M167 111L168 112L167 111M174 111L175 112L174 111M10 112L11 113L10 112M85 112L86 113L85 112M94 112L95 113L94 112z"/>
<path style="fill:#fbfbfb; stroke:none;" d="M111 112L112 113L111 112z"/>
<path style="fill:#a7a59c; stroke:none;" d="M145 112L146 113L145 112M150.667 112.333L151.333 112.667L150.667 112.333M165.667 112.333L166.333 112.667L165.667 112.333M173 112L174 113L173 112M87 113L88 114L87 113M96 113L97 114L96 113z"/>
<path style="fill:#7e9f07; stroke:none;" d="M97 113L98 114L97 113z"/>
<path style="fill:#fbfbfb; stroke:none;" d="M110 113L111 114L110 113z"/>
<path style="fill:#a7a59c; stroke:none;" d="M147 113L148 114L147 113M152.667 113.333L153.333 113.667L152.667 113.333z"/>
<path style="fill:#7e9f07; stroke:none;" d="M154 113L155 114L154 113z"/>
<path style="fill:#a7a59c; stroke:none;" d="M156 114L156 115L165 114L156 114M171 113L172 114L171 113M242 113L243 114L242 113M9 114L10 115L9 114M89 114L90 115L89 114M148.667 114.333L149.333 114.667L148.667 114.333M168 114L168 115L171 115L168 114M91.6667 115.333L92.3333 115.667L91.6667 115.333M151.667 115.333L152.333 115.667L151.667 115.333M165 115L165 116L168 116L165 115M155 116L155 117L163 117L155 116M243.333 116.667L243.667 117.333L243.333 116.667M8.33333 117.667L8.66667 118.333L8.33333 117.667M8.33333 123.667L8.66667 124.333L8.33333 123.667z"/>
<path style="fill:#3a4504; stroke:none;" d="M172 124L174 128L174 129C154.839 139.625 133.733 143.309 112 138.101C104.947 136.411 92.7127 133.969 93 125L86 132L89 131C93.2637 146.025 100.585 163.17 117 168C106.639 177.299 84.0228 181.673 83 162C88.1595 163.214 92.2713 163.035 96 159C88.4069 159.96 81.1951 160.389 75.0934 154.786C71.9093 151.863 70.4306 147.491 67 145C67.0182 151.326 67.8052 155.92 73 160L73 161C59.7122 167.962 46.2241 167.175 36.7894 153.999C33.6857 149.665 32.7806 144.419 30 140C25.6683 151.482 25.307 163.354 29 175C16.2188 174.451 5.72007 173.145 0 187L262 187C261.689 177.427 253.352 175.173 245 175C255.724 162.453 260.547 143.844 238 142L238 143C256.454 151.14 230.887 166.22 220 165.721C208.984 165.217 211.325 155.729 205.397 151.027C201.809 148.181 193.504 146.446 189 144L192 155C183.638 158.048 177.32 155.907 169 154L176 131L179 132L172 124z"/>
<path style="fill:#a7a59c; stroke:none;" d="M243.333 125.667L243.667 126.333L243.333 125.667M32.3333 130.667L32.6667 131.333L32.3333 130.667M242 130L243 131L242 130M12 131L13 132L12 131M30 131L31 132L30 131z"/>
<path style="fill:#3a4504; stroke:none;" d="M85 132L86 133L85 132z"/>
<path style="fill:#a7a59c; stroke:none;" d="M171 133L171 134L173 136L174 136L173 132L171 133z"/>
<path style="fill:#fbfbfb; stroke:none;" d="M173 132L174 133L173 132z"/>
<path style="fill:#a7a59c; stroke:none;" d="M241 132L242 133L241 132M15 133L16 134L15 133M26 133L27 134L26 133M31 133L32 134L31 133M92.6667 133.333L93.3333 133.667L92.6667 133.333z"/>
<path style="fill:#fbfbfb; stroke:none;" d="M172 133L167 136C169.403 142.004 173.911 137.935 172 133z"/>
<path style="fill:#a7a59c; stroke:none;" d="M18 134L18 135L24 135L18 134z"/>
<path style="fill:#fbfbfb; stroke:none;" d="M93 134L95 141L98 136L93 134z"/>
<path style="fill:#7e9f07; stroke:none;" d="M95 134L96 135L95 134z"/>
<path style="fill:#a7a59c; stroke:none;" d="M169 134L170 135L169 134M240 134L241 135L240 134M96 135L97 136L96 135M30 136L31 137L30 136M93.3333 136.667L93.6667 137.333L93.3333 136.667M98.3333 136.667L98.6667 137.333L98.3333 136.667M239 136L240 137L239 136M101 137L102 138L101 137M163.667 137.333L164.333 137.667L163.667 137.333M238 137L239 138L238 137z"/>
<path style="fill:#7e9f07; stroke:none;" d="M100 138L101 139L100 138z"/>
<path style="fill:#fbfbfb; stroke:none;" d="M99 142L105 144L107 139C103.066 138.391 101.162 138.509 99 142z"/>
<path style="fill:#a7a59c; stroke:none;" d="M104 138L105 139L104 138z"/>
<path style="fill:#7e9f07; stroke:none;" d="M160 138L161 139L160 138z"/>
<path style="fill:#a7a59c; stroke:none;" d="M161 138L162 139L161 138z"/>
<path style="fill:#fbfbfb; stroke:none;" d="M158 144C162.165 143.331 164.286 142.317 165 138C160.835 138.669 158.714 139.683 158 144z"/>
<path style="fill:#a7a59c; stroke:none;" d="M167 138L168 139L167 138M172 138L173 139L172 138M29 139L30 140L29 139M94 139L95 140L94 139M97 139L98 140L97 139M158 139L159 140L158 139M165 139L165 142L166 142L165 139z"/>
<path style="fill:#7e9f07; stroke:none;" d="M172 139L173 140L172 139z"/>
<path style="fill:#a7a59c; stroke:none;" d="M96 140L97 141L96 140M99 140L100 141L99 140M109 140L109 141L112 141L109 140z"/>
<path style="fill:#7e9f07; stroke:none;" d="M112 140L113 141L112 140M153 140L154 141L153 140z"/>
<path style="fill:#a7a59c; stroke:none;" d="M154 140L155 145L156 145L154 140M157 140L158 141L157 140M235 140L240 142L240 141L235 140M106 141L107 142L106 141z"/>
<path style="fill:#fbfbfb; stroke:none;" d="M108 145L115 147L116 141C112.014 141.048 109.584 141.06 108 145z"/>
<path style="fill:#a7a59c; stroke:none;" d="M116.333 141.667L116.667 142.333L116.333 141.667z"/>
<path style="fill:#7e9f07; stroke:none;" d="M119.667 141.333L120.333 141.667L119.667 141.333z"/>
<path style="fill:#a7a59c; stroke:none;" d="M149 141C148.117 144.304 148.043 146.08 151 148L151 147L149 141z"/>
<path style="fill:#fbfbfb; stroke:none;" d="M149 147C153.249 146.511 154.657 145.297 155 141C150.635 141.34 149.34 142.635 149 147z"/>
<path style="fill:#7e9f07; stroke:none;" d="M157.333 141.667L157.667 142.333L157.333 141.667z"/>
<path style="fill:#8d2b33; stroke:none;" d="M167 141C162.86 146.092 155.237 147.788 149 149.216C140.838 151.085 131.429 153.114 123 151.657C113.451 150.006 104.548 144.696 95 143C97.8337 149.568 105.653 163.729 114 163.788C124.666 163.863 145.929 152.285 153 165C162.179 161.444 169.29 151.595 171 142L167 141z"/>
<path style="fill:#a7a59c; stroke:none;" d="M28.3333 142.667L28.6667 143.333L28.3333 142.667z"/>
<path style="fill:#7e9f07; stroke:none;" d="M99 142L100 143L99 142z"/>
<path style="fill:#a7a59c; stroke:none;" d="M108 142L109 143L108 142M118.333 142.667L118.667 143.333L118.333 142.667z"/>
<path style="fill:#fbfbfb; stroke:none;" d="M118 149C124.714 149.288 130.711 151.795 131 143C124.275 142.469 118.48 140.335 118 149z"/>
<path style="fill:#a7a59c; stroke:none;" d="M126 142L126 143L131 143L126 142M133 142L133 143L142 143L133 142z"/>
<path style="fill:#fbfbfb; stroke:none;" d="M133 143C134.098 152.745 145.695 151.285 146 142L133 143z"/>
<path style="fill:#a7a59c; stroke:none;" d="M146 142L146 146L147 146L146 142M164 142L165 143L164 142z"/>
<path style="fill:#7e9f07; stroke:none;" d="M242 142L243 143L242 142z"/>
<path style="fill:#a7a59c; stroke:none;" d="M243.667 142.333L244.333 142.667L243.667 142.333M102 143L103 144L102 143M105 143L106 144L105 143M157 143L158 144L157 143M161.667 143.333L162.333 143.667L161.667 143.333M246 143L247 144L246 143z"/>
<path style="fill:#7e9f07; stroke:none;" d="M28 144L29 145L28 144z"/>
<path style="fill:#a7a59c; stroke:none;" d="M104 144L105 145L104 144M107 144L108 145L107 144M158 144L159 145L158 144z"/>
<path style="fill:#7e9f07; stroke:none;" d="M159 144L160 145L159 144z"/>
<path style="fill:#a7a59c; stroke:none;" d="M248 144L249 145L248 144M108.667 145.333L109.333 145.667L108.667 145.333M250 145L251 146L250 145M27.3333 146.667L27.6667 147.333L27.3333 146.667M111.667 146.333L112.333 146.667L111.667 146.333M115 146L116 147L115 146M153 146L154 147L153 146M251 146L252 147L251 146M133.333 147.667L133.667 148.333L133.333 147.667M252 147L253 148L252 147z"/>
<path style="fill:#7e9f07; stroke:none;" d="M27 148L28 149L27 148z"/>
<path style="fill:#a7a59c; stroke:none;" d="M145 148L146 149L145 148M119 149L119 150L124 150L119 149M134 149L135 150L134 149M141 149L141 150L144 150L141 149z"/>
<path style="fill:#7e9f07; stroke:none;" d="M253 149L254 150L253 149z"/>
<path style="fill:#a7a59c; stroke:none;" d="M254 150L255 151L254 150M26.3333 151.667L26.6667 152.333L26.3333 151.667z"/>
<path style="fill:#7e9f07; stroke:none;" d="M254 151L255 152L254 151M26 153L26 157L27 157L26 153z"/>
<path style="fill:#a7a59c; stroke:none;" d="M255 154L255 160L256 160L255 154z"/>
<path style="fill:#8d2b33; stroke:none;" d="M116 166C127.446 171.066 140.563 171.062 152 166C147.01 157.026 140.727 162.029 133 162.802C126.369 163.465 121.284 160.282 116 166z"/>
<path style="fill:#7e9f07; stroke:none;" d="M254 161L255 162L254 161z"/>
<path style="fill:#a7a59c; stroke:none;" d="M254 162L255 163L254 162z"/>
<path style="fill:#7e9f07; stroke:none;" d="M26 164L26 167L27 167L26 164M139 172L139 173C148.112 174.152 156.176 173.788 160 164L139 172M253 164L254 165L253 164z"/>
<path style="fill:#a7a59c; stroke:none;" d="M252 166L253 167L252 166M26.3333 167.667L26.6667 168.333L26.3333 167.667z"/>
<path style="fill:#7e9f07; stroke:none;" d="M251 167L252 168L251 167z"/>
<path style="fill:#a7a59c; stroke:none;" d="M250 169L251 170L250 169z"/>
<path style="fill:#7e9f07; stroke:none;" d="M27 170L28 171L27 170z"/>
<path style="fill:#a7a59c; stroke:none;" d="M249 170L250 171L249 170M27 171L28 172L27 171z"/>
<path style="fill:#7e9f07; stroke:none;" d="M135.667 171.333L136.333 171.667L135.667 171.333z"/>
<path style="fill:#a7a59c; stroke:none;" d="M137 171L137 172L140 172L137 171M248 171L249 172L248 171M247 172L248 173L247 172z"/>
<path style="fill:#7e9f07; stroke:none;" d="M28 173L29 174L28 173M245 173L246 174L245 173z"/>
<path style="fill:#a7a59c; stroke:none;" d="M11.6667 174.333L12.3333 174.667L11.6667 174.333z"/>
<path style="fill:#7e9f07; stroke:none;" d="M13.6667 174.333L14.3333 174.667L13.6667 174.333M23 174L23 175L26 175L23 174z"/>
<path style="fill:#a7a59c; stroke:none;" d="M26 174L26 175L29 175L26 174M245 174L245 175L249 175L245 174M9 175L10 176L9 175z"/>
<path style="fill:#7e9f07; stroke:none;" d="M251 175L252 176L251 175z"/>
<path style="fill:#a7a59c; stroke:none;" d="M252.667 175.333L253.333 175.667L252.667 175.333z"/>
<path style="fill:#7e9f07; stroke:none;" d="M7 176L8 177L7 176z"/>
<path style="fill:#a7a59c; stroke:none;" d="M255 176L256 177L255 176M5 177L6 178L5 177M257 177L258 178L257 177M4 178L5 179L4 178z"/>
<path style="fill:#7e9f07; stroke:none;" d="M258 178L259 179L258 178z"/>
<path style="fill:#a7a59c; stroke:none;" d="M3 179L4 180L3 179M260 179L261 180L260 179z"/>
<path style="fill:#7e9f07; stroke:none;" d="M2 181L3 182L2 181z"/>
<path style="fill:#a7a59c; stroke:none;" d="M0.666667 183.333L1.33333 183.667L0.666667 183.333z"/>
<path style="fill:#7e9f07; stroke:none;" d="M0.666667 184.333L1.33333 184.667L0.666667 184.333z"/>
</svg>
